{
  "accessors": [
    {
      "bufferView": 2,
      "componentType": 5126,
      "count": 15648,
      "max": [
        1.037622332572937,
        1.2742919921875,
        1.0381333827972412
      ],
      "min": [
        -0.9948121905326843,
        -0.006091443356126547,
        -1.0258262157440186
      ],
      "type": "VEC3"
    },
    {
      "bufferView": 2,
      "byteOffset": 187776,
      "componentType": 5126,
      "count": 15648,
      "max": [
        0.9999932646751404,
        0.9757205843925476,
        0.9998468160629272
      ],
      "min": [
        -0.999981701374054,
        -0.9977631568908691,
        -0.9999000430107117
      ],
      "type": "VEC3"
    },
    {
      "bufferView": 3,
      "componentType": 5126,
      "count": 15648,
      "max": [
        0.8538603782653809,
        0.9998736381530762,
        0.9960657358169556,
        1.0
      ],
      "min": [
        -0.9996607303619385,
        -0.9998278617858887,
        -0.9579119086265564,
        -1.0
      ],
      "type": "VEC4"
    },
    {
      "bufferView": 1,
      "componentType": 5126,
      "count": 15648,
      "max": [
        0.9867274165153503,
        0.9952664971351624
      ],
      "min": [
        0.004733585752546787,
        0.004733622074127197
      ],
      "type": "VEC2"
    },
    {
      "bufferView": 1,
      "byteOffset": 125184,
      "componentType": 5126,
      "count": 15648,
      "max": [
        0.9867274165153503,
        0.9952664971351624
      ],
      "min": [
        0.004733585752546787,
        0.004733622074127197
      ],
      "type": "VEC2"
    },
    {
      "bufferView": 1,
      "byteOffset": 250368,
      "componentType": 5126,
      "count": 15648,
      "max": [
        0.9867274165153503,
        0.9952664971351624
      ],
      "min": [
        0.004733585752546787,
        0.004733622074127197
      ],
      "type": "VEC2"
    },
    {
      "bufferView": 1,
      "byteOffset": 375552,
      "componentType": 5126,
      "count": 15648,
      "max": [
        0.9867274165153503,
        0.9952664971351624
      ],
      "min": [
        0.004733585752546787,
        0.004733622074127197
      ],
      "type": "VEC2"
    },
    {
      "bufferView": 1,
      "byteOffset": 500736,
      "componentType": 5126,
      "count": 15648,
      "max": [
        0.9867274165153503,
        0.9952664971351624
      ],
      "min": [
        0.004733585752546787,
        0.004733622074127197
      ],
      "type": "VEC2"
    },
    {
      "bufferView": 0,
      "componentType": 5125,
      "count": 89550,
      "type": "SCALAR"
    }
  ],
  "asset": {
    "extras": {
      "author": "Scott100 (https://sketchfab.com/Scott100)",
      "license": "CC-BY-4.0 (http://creativecommons.org/licenses/by/4.0/)",
      "source": "https://sketchfab.com/3d-models/welded-pipe-e0c6e8246d54406fbb96beacdcfae736",
      "title": "Welded Pipe"
    },
    "generator": "Sketchfab-16.63.0",
    "version": "2.0"
  },
  "bufferViews": [
    {
      "buffer": 0,
      "byteLength": 358200,
      "name": "floatBufferViews",
      "target": 34963
    },
    {
      "buffer": 0,
      "byteLength": 625920,
      "byteOffset": 358200,
      "byteStride": 8,
      "name": "floatBufferViews",
      "target": 34962
    },
    {
      "buffer": 0,
      "byteLength": 375552,
      "byteOffset": 984120,
      "byteStride": 12,
      "name": "floatBufferViews",
      "target": 34962
    },
    {
      "buffer": 0,
      "byteLength": 250368,
      "byteOffset": 1359672,
      "byteStride": 16,
      "name": "floatBufferViews",
      "target": 34962
    }
  ],
  "buffers": [
    {
      "byteLength": 1610040,
      "uri": "scene.bin"
    }
  ],
  "images": [
    {
      "uri": "textures/material_0_baseColor.jpeg"
    },
    {
      "uri": "textures/material_0_metallicRoughness.png"
    },
    {
      "uri": "textures/material_0_normal.jpeg"
    }
  ],
  "materials": [
    {
      "name": "material_0",
      "normalTexture": {
        "index": 2
      },
      "occlusionTexture": {
        "index": 1
      },
      "pbrMetallicRoughness": {
        "baseColorTexture": {
          "index": 0
        },
        "metallicFactor": 0.0,
        "metallicRoughnessTexture": {
          "index": 1
        }
      }
    }
  ],
  "meshes": [
    {
      "name": "Object_0",
      "primitives": [
        {
          "attributes": {
            "NORMAL": 1,
            "POSITION": 0,
            "TANGENT": 2,
            "TEXCOORD_0": 3,
            "TEXCOORD_1": 4,
            "TEXCOORD_2": 5,
            "TEXCOORD_3": 6,
            "TEXCOORD_4": 7
          },
          "indices": 8,
          "material": 0,
          "mode": 4
        }
      ]
    }
  ],
  "nodes": [
    {
      "children": [
        1
      ],
      "matrix": [
        1.0,
        0.0,
        0.0,
        0.0,
        0.0,
        2.220446049250313e-16,
        -1.0,
        0.0,
        0.0,
        1.0,
        2.220446049250313e-16,
        0.0,
        0.0,
        0.0,
        0.0,
        1.0
      ],
      "name": "Sketchfab_model"
    },
    {
      "children": [
        2
      ],
      "name": "root"
    },
    {
      "children": [
        3
      ],
      "matrix": [
        1.0,
        0.0,
        0.0,
        0.0,
        0.0,
        2.220446049250313e-16,
        1.0,
        0.0,
        0.0,
        -1.0,
        2.220446049250313e-16,
        0.0,
        0.0,
        0.0,
        0.0,
        1.0
      ],
      "name": "GLTF_SceneRootNode"
    },
    {
      "children": [
        4
      ],
      "name": "_0"
    },
    {
      "mesh": 0,
      "name": "Object_4"
    }
  ],
  "samplers": [
    {
      "magFilter": 9729,
      "minFilter": 9729,
      "wrapS": 10497,
      "wrapT": 10497
    }
  ],
  "scene": 0,
  "scenes": [
    {
      "name": "Sketchfab_Scene",
      "nodes": [
        0
      ]
    }
  ],
  "textures": [
    {
      "sampler": 0,
      "source": 0
    },
    {
      "sampler": 0,
      "source": 1
    },
    {
      "sampler": 0,
      "source": 2
    }
  ]
}
