{"accessors" : [{"bufferView" : 0, "byteOffset" : 0, "componentType" : 5123, "count" : 1668, "type" : "SCALAR", "max" : [1667], "min" : [0]}, {"bufferView" : 1, "byteOffset" : 0, "componentType" : 5126, "count" : 1668, "type" : "VEC3", "max" : [2.5052201747894287, 1.3363591432571411, 8.088492393493652], "min" : [-2.5052201747894287, -1.5272085666656494, 0], "name" : "POSITION"}, {"bufferView" : 1, "byteOffset" : 12, "componentType" : 5126, "count" : 1668, "type" : "VEC3", "max" : [1.0000044107437134, 1.0000044107437134, 1.0000044107437134], "min" : [-1.0000044107437134, -1.0000044107437134, -1.0000044107437134], "name" : "NORMAL"}, {"bufferView" : 1, "byteOffset" : 24, "componentType" : 5126, "count" : 1668, "type" : "VEC2", "max" : [0.9989421367645264, 0.9972717761993408], "min" : [0.0014336779713630676, 0.007727265357971191], "name" : "TEXCOORD_0"}], "asset" : {"generator" : "Aspose.3D 24.1.0", "version" : "2.0"}, "buffers" : [{"uri" : "data:application/octet-stream;base64,", "byteLength" : 56720}], "bufferViews" : [{"buffer" : 0, "byteOffset" : 0, "byteLength" : 3336, "target" : 34963}, {"buffer" : 0, "byteOffset" : 3340, "byteLength" : 53376, "byteStride" : 32, "target" : 34962}], "images" : [{"uri" : "data:image/jpeg;base64,"}], "materials" : [{"name" : "01 - Default", "pbrMetallicRoughness" : {"baseColorFactor" : [1, 1, 1, 1], "baseColorTexture" : {"index" : 0, "texCoord" : 0}, "metallicFactor" : 1, "roughnessFactor" : 1}, "emissiveFactor" : [0, 0, 0], "alphaMode" : "OPAQUE", "doubleSided" : false}], "meshes" : [{"primitives" : [{"attributes" : {"POSITION" : 1, "NORMAL" : 2, "TEXCOORD_0" : 3}, "indices" : 0, "material" : 0, "mode" : 4}], "name" : ""}], "nodes" : [{"matrix" : [0.8993535041809082, 0, 0, 0, 0, 6.123233995736766E-17, -1, 0, 0, 1.0942150354385376, 6.700134703643563E-17, 0, 0, 0, 0, 1], "mesh" : 0, "name" : "Box001"}], "samplers" : [{"magFilter" : 9729, "minFilter" : 9729, "wrapS" : 10497, "wrapT" : 10497}], "scene" : 0, "scenes" : [{"nodes" : [0]}], "textures" : [{"sampler" : 0, "source" : 0, "name" : "Map #2"}]}